<svg xmlns="http://www.w3.org/2000/svg" viewBox="0 0 160 120"><rect width="160" height="120" fill="#3E7FD0"/><path d="M70 30 v22 L52 88 a6 6 0 0 0 6 9 h44 a6 6 0 0 0 6 -9 L90 52 V30" fill="none" stroke="#fff" stroke-width="4" stroke-linejoin="round"/><line x1="66" y1="30" x2="94" y2="30" stroke="#fff" stroke-width="4" stroke-linecap="round"/><path d="M60 76 h40 l7 12 a6 6 0 0 1 -6 9 h-42 a6 6 0 0 1 -6 -9 z" fill="#fff" opacity=".9"/><g fill="#3E7FD0"><circle cx="72" cy="88" r="3"/><circle cx="86" cy="84" r="2.5"/><circle cx="92" cy="90" r="2"/></g><circle cx="112" cy="40" r="3" fill="#fff"/><circle cx="120" cy="52" r="2" fill="#fff"/></svg>
